<svg xmlns="http://www.w3.org/2000/svg" fill="none" viewBox="0 0 520 447">
  <path fill="#111117" d="M0 6h520v440.922H0z" />
  <path
    fill="#fff"
    d="M222.5 365h-66V192.5c0-17-2.167-30.167-6.5-39.5-4-9.667-10.167-18-18.5-25l55-38.5c12 10 21.167 21.667 27.5 35 24.667-23.333 42-35 52-35 6.667 0 16.833 6.167 30.5 18.5 13.667 12.333 21.667 25.833 24 40.5L267 187c-.333-8-2.333-15.833-6-23.5-3.333-7.667-6.333-11.5-9-11.5-5.667 0-15.5 7-29.5 21v192Zm109.906-72.5c3.667 0 12 5.5 25 16.5s19.5 18.5 19.5 22.5c0 3.667-6.5 11.167-19.5 22.5s-21.333 17-25 17c-3.666 0-12-5.667-25-17s-19.5-18.833-19.5-22.5c0-4 6.5-11.5 19.5-22.5 13.334-11 21.667-16.5 25-16.5Z"
  />
</svg>
